<?xml version="1.0" standalone="no"?>
<!DOCTYPE svg PUBLIC "-//W3C//DTD SVG 20010904//EN"
 "http://www.w3.org/TR/2001/REC-SVG-20010904/DTD/svg10.dtd">
<svg version="1.0" xmlns="http://www.w3.org/2000/svg"
 width="700.000000pt" height="200.000000pt" viewBox="0 0 700.000000 200.000000"
 preserveAspectRatio="xMidYMid meet">

<g transform="translate(0.000000,200.000000) scale(0.100000,-0.100000)"
fill="#000000" stroke="none">
<path d="M2826 1467 c-23 -16 -27 -87 -7 -111 17 -21 94 -22 111 -1 19 23 15
97 -6 112 -23 17 -75 17 -98 0z"/>
<path d="M3088 1469 c-26 -15 -34 -74 -14 -104 13 -20 25 -25 59 -25 55 0 67
13 67 72 0 37 -4 50 -19 58 -25 13 -71 13 -93 -1z"/>
<path d="M2133 1390 c-21 -9 -23 -16 -23 -90 l0 -80 -44 0 c-66 0 -94 -38 -66
-91 8 -15 22 -19 60 -19 l50 0 0 -222 c0 -125 5 -240 11 -261 25 -90 110 -137
220 -122 59 8 89 33 89 73 0 47 -11 54 -61 41 -57 -15 -94 -6 -116 28 -16 23
-18 58 -21 245 l-4 218 91 0 c79 0 92 2 101 19 14 28 12 57 -6 75 -12 12 -36
16 -100 16 l-84 0 0 80 c0 77 -1 81 -26 90 -30 12 -42 12 -71 0z"/>
<path d="M455 1221 c-105 -27 -183 -103 -215 -210 -30 -97 -25 -260 9 -337 64
-146 231 -206 430 -155 47 11 93 28 103 37 21 20 25 82 4 90 -7 3 -42 -5 -77
-17 -90 -31 -208 -31 -265 -1 -55 28 -85 78 -91 152 l-6 60 226 0 227 0 16 25
c13 19 15 38 10 83 -21 179 -108 269 -268 277 -40 2 -86 1 -103 -4z m173 -117
c35 -26 72 -99 72 -141 l0 -33 -175 0 -175 0 0 25 c0 60 49 136 105 161 42 20
138 13 173 -12z"/>
<path d="M1430 1221 c-41 -13 -88 -40 -125 -72 l-35 -31 0 45 c0 47 -9 57 -55
57 -58 0 -55 18 -55 -355 0 -376 -4 -355 60 -355 62 0 60 -10 60 249 l0 238
45 45 c24 25 60 53 79 62 73 35 146 11 177 -57 16 -37 19 -68 19 -278 0 -169
3 -238 12 -247 17 -17 93 -15 108 3 9 10 11 80 8 267 -3 249 -3 254 -29 309
-15 32 -41 67 -60 82 -55 41 -144 57 -209 38z"/>
<path d="M2917 1220 c-99 -25 -179 -97 -217 -196 -33 -83 -34 -253 -2 -334 46
-117 130 -177 265 -187 132 -10 252 42 311 136 68 108 80 294 25 420 -25 60
-80 114 -143 142 -55 24 -178 34 -239 19z m177 -114 c72 -30 108 -113 108
-248 0 -79 -3 -96 -29 -146 -37 -73 -84 -102 -166 -102 -128 0 -191 68 -204
219 -11 127 33 237 108 274 42 20 138 22 183 3z"/>
<path d="M3882 1214 c-18 -9 -51 -37 -72 -62 l-40 -45 0 51 c0 53 -8 62 -55
62 -58 0 -55 18 -55 -355 0 -376 -4 -355 60 -355 62 0 60 -9 60 234 l0 222 41
56 c57 78 92 95 161 81 39 -8 55 -8 60 1 13 20 9 93 -6 105 -25 21 -117 24
-154 5z"/>
</g>
</svg>
