<?xml version="1.0" standalone="no"?>
<!DOCTYPE svg PUBLIC "-//W3C//DTD SVG 20010904//EN"
 "http://www.w3.org/TR/2001/REC-SVG-20010904/DTD/svg10.dtd">
<svg version="1.0" xmlns="http://www.w3.org/2000/svg"
 width="168.000000pt" height="48.000000pt" viewBox="0 0 168.000000 48.000000"
 preserveAspectRatio="xMidYMid meet">

<g transform="translate(0.000000,48.000000) scale(0.100000,-0.100000)"
fill="#000000" stroke="none">
<path d="M46 359 c-30 -24 -35 -69 -10 -90 9 -8 44 -23 78 -34 41 -13 62 -26
64 -38 6 -29 -17 -47 -59 -47 -38 0 -46 5 -74 45 -11 16 -16 17 -26 8 -10 -10
-10 -18 -1 -38 16 -34 75 -59 122 -51 38 6 80 45 80 76 0 33 -42 68 -102 84
-59 17 -73 37 -46 64 25 25 98 7 98 -23 0 -8 9 -15 20 -15 27 0 25 26 -5 55
-32 33 -100 35 -139 4z"/>
<path d="M307 373 c-4 -3 -7 -62 -7 -130 0 -116 1 -123 20 -123 19 0 20 7 20
130 0 102 -3 130 -13 130 -8 0 -17 -3 -20 -7z"/>
<path d="M437 373 c-4 -3 -7 -62 -7 -130 0 -116 1 -123 20 -123 19 0 20 7 20
97 l0 98 65 -98 c46 -68 71 -97 85 -97 19 0 20 7 20 131 0 119 -2 130 -17 127
-15 -3 -18 -17 -21 -97 l-3 -95 -65 97 c-59 89 -80 108 -97 90z"/>
<path d="M772 303 c-17 -43 -40 -102 -51 -131 l-21 -53 22 3 c15 2 25 13 32
36 9 31 10 32 67 32 57 0 58 0 69 -35 8 -24 18 -35 31 -35 10 0 19 4 19 8 0 4
-22 62 -49 128 -64 153 -76 158 -119 47z m88 -70 c0 -2 -18 -3 -40 -3 -44 0
-43 -8 -9 78 l11 27 19 -50 c10 -27 19 -51 19 -52z"/>
<path d="M964 357 c3 -14 24 -73 47 -131 55 -143 66 -142 126 9 59 150 58 145
36 145 -15 0 -28 -23 -59 -109 -21 -60 -41 -108 -42 -106 -2 2 -21 50 -41 107
-27 73 -43 104 -56 106 -14 3 -17 -1 -11 -21z"/>
<path d="M1260 250 c0 -123 1 -130 20 -130 19 0 20 7 20 130 0 123 -1 130 -20
130 -19 0 -20 -7 -20 -130z"/>
<path d="M1390 251 c0 -124 1 -131 20 -131 19 0 20 7 21 93 l0 92 34 -90 c24
-66 37 -90 50 -90 13 0 26 24 50 90 l34 90 0 -92 c1 -86 2 -93 21 -93 19 0 20
7 20 130 l0 130 -24 0 c-21 0 -28 -12 -61 -107 l-38 -106 -36 104 c-33 96 -38
104 -63 107 l-28 3 0 -130z"/>
</g>
</svg>
